<svg width="22" height="22" viewBox="0 0 22 22" fill="none" xmlns="http://www.w3.org/2000/svg">
<g clip-path="url(#clip0)">
<path d="M7.5498 11.8169H19.5498V1.1499H7.5498V11.8169Z" stroke="white" stroke-width="1.5" stroke-miterlimit="10" stroke-linecap="round" stroke-linejoin="round"/>
<path d="M6.75 16.75C7.14556 16.75 7.53224 16.8673 7.86114 17.0871C8.19004 17.3068 8.44638 17.6192 8.59776 17.9846C8.74913 18.3501 8.78874 18.7522 8.71157 19.1402C8.6344 19.5281 8.44392 19.8845 8.16421 20.1642C7.88451 20.4439 7.52814 20.6344 7.14018 20.7116C6.75222 20.7887 6.35009 20.7491 5.98463 20.5978C5.61918 20.4464 5.30682 20.19 5.08706 19.8611C4.8673 19.5322 4.75 19.1456 4.75 18.75C4.75 18.2196 4.96071 17.7109 5.33579 17.3358C5.71086 16.9607 6.21957 16.75 6.75 16.75V16.75Z" stroke="white" stroke-width="1.5" stroke-miterlimit="10" stroke-linecap="round" stroke-linejoin="round"/>
<path d="M17.9502 16.75C18.3458 16.75 18.7324 16.8673 19.0613 17.0871C19.3902 17.3068 19.6466 17.6192 19.798 17.9846C19.9493 18.3501 19.9889 18.7522 19.9118 19.1402C19.8346 19.5281 19.6441 19.8845 19.3644 20.1642C19.0847 20.4439 18.7283 20.6344 18.3404 20.7116C17.9524 20.7887 17.5503 20.7491 17.1848 20.5978C16.8194 20.4464 16.507 20.19 16.2873 19.8611C16.0675 19.5322 15.9502 19.1456 15.9502 18.75C15.9502 18.2196 16.1609 17.7109 16.536 17.3358C16.9111 16.9607 17.4198 16.75 17.9502 16.75V16.75Z" stroke="white" stroke-width="1.5" stroke-miterlimit="10" stroke-linecap="round" stroke-linejoin="round"/>
<path d="M20.75 14.083H5.417L3.417 0.75H0.75" stroke="white" stroke-width="1.5" stroke-miterlimit="10" stroke-linecap="round" stroke-linejoin="round"/>
<path d="M13.9502 3.94995V9.54995" stroke="white" stroke-width="1.5" stroke-miterlimit="10" stroke-linecap="round" stroke-linejoin="round"/>
<path d="M11.9502 5.94995L13.9502 3.94995L15.9502 5.94995" stroke="white" stroke-width="1.5" stroke-miterlimit="10" stroke-linecap="round" stroke-linejoin="round"/>
</g>
<defs>
<clipPath id="clip0">
<rect width="21.5" height="21.5" fill="white"/>
</clipPath>
</defs>
</svg>
