<svg width="22" height="22" viewBox="0 0 22 22" fill="none" xmlns="http://www.w3.org/2000/svg">
<g clip-path="url(#clip0)">
<path d="M14.75 6.75L6.75 14.75" stroke="white" stroke-width="1.5" stroke-miterlimit="10" stroke-linecap="round" stroke-linejoin="round"/>
<path d="M14.75 14.75L6.75 6.75" stroke="white" stroke-width="1.5" stroke-miterlimit="10" stroke-linecap="round" stroke-linejoin="round"/>
<path d="M10.75 0.75C12.7278 0.75 14.6612 1.33649 16.3057 2.4353C17.9502 3.53412 19.2319 5.0959 19.9888 6.92317C20.7457 8.75043 20.9437 10.7611 20.5579 12.7009C20.172 14.6407 19.2196 16.4225 17.8211 17.8211C16.4225 19.2196 14.6407 20.172 12.7009 20.5579C10.7611 20.9437 8.75043 20.7457 6.92317 19.9888C5.0959 19.2319 3.53412 17.9502 2.4353 16.3057C1.33649 14.6612 0.75 12.7278 0.75 10.75C0.75 8.09784 1.80357 5.5543 3.67893 3.67893C5.5543 1.80357 8.09784 0.75 10.75 0.75V0.75Z" stroke="white" stroke-width="1.5" stroke-miterlimit="10" stroke-linecap="round" stroke-linejoin="round"/>
</g>
<defs>
<clipPath id="clip0">
<rect width="21.5" height="21.5" fill="white"/>
</clipPath>
</defs>
</svg>
