<svg width="29" height="22" viewBox="0 0 29 22" fill="none" xmlns="http://www.w3.org/2000/svg">
<g clip-path="url(#clip0)">
<path d="M23.4771 17.114H28.0221V9.841L24.3861 8.023L21.6591 0.75H13.4771V17.114H16.2041" stroke="white" stroke-width="1.5" stroke-miterlimit="10" stroke-linecap="round" stroke-linejoin="round"/>
<path d="M19.8411 13.4771C20.5602 13.4771 21.2632 13.6903 21.8611 14.0898C22.4591 14.4894 22.9251 15.0572 23.2003 15.7216C23.4755 16.386 23.5475 17.1171 23.4072 17.8224C23.2669 18.5277 22.9206 19.1756 22.4121 19.6841C21.9036 20.1926 21.2557 20.5389 20.5504 20.6792C19.8451 20.8195 19.114 20.7475 18.4496 20.4723C17.7852 20.1971 17.2174 19.731 16.8179 19.1331C16.4183 18.5352 16.2051 17.8322 16.2051 17.1131C16.2053 16.1488 16.5885 15.2241 17.2703 14.5423C17.9522 13.8605 18.8768 13.4773 19.8411 13.4771V13.4771Z" stroke="white" stroke-width="1.5" stroke-miterlimit="10" stroke-linecap="round" stroke-linejoin="round"/>
<path d="M17.1138 4.38599V8.02199H20.7498" stroke="white" stroke-width="1.5" stroke-miterlimit="10" stroke-linecap="round" stroke-linejoin="round"/>
<path d="M9.841 0.75H0.75" stroke="white" stroke-width="1.5" stroke-miterlimit="10" stroke-linecap="round" stroke-linejoin="round"/>
<path d="M9.84105 5.29504H3.47705" stroke="white" stroke-width="1.5" stroke-miterlimit="10" stroke-linecap="round" stroke-linejoin="round"/>
<path d="M9.84108 9.84094H6.20508" stroke="white" stroke-width="1.5" stroke-miterlimit="10" stroke-linecap="round" stroke-linejoin="round"/>
</g>
<defs>
<clipPath id="clip0">
<rect width="28.773" height="21.5" fill="white"/>
</clipPath>
</defs>
</svg>
