<svg width="21" height="22" viewBox="0 0 21 22" fill="none" xmlns="http://www.w3.org/2000/svg">
<g clip-path="url(#clip0)">
<path d="M13.75 9.08398V6.08398C13.75 5.55355 13.5393 5.04484 13.1642 4.66977C12.7891 4.2947 12.2804 4.08398 11.75 4.08398H7.75" stroke="white" stroke-width="1.5" stroke-miterlimit="10" stroke-linecap="round" stroke-linejoin="round"/>
<path d="M10.417 6.74999L7.75 4.08399L10.417 1.41699" stroke="white" stroke-width="1.5" stroke-miterlimit="10" stroke-linecap="round" stroke-linejoin="round"/>
<path d="M6.75 16.75C7.14556 16.75 7.53224 16.8673 7.86114 17.0871C8.19004 17.3068 8.44638 17.6192 8.59776 17.9846C8.74913 18.3501 8.78874 18.7522 8.71157 19.1402C8.6344 19.5281 8.44392 19.8845 8.16421 20.1642C7.88451 20.4439 7.52814 20.6344 7.14018 20.7116C6.75222 20.7887 6.35009 20.7491 5.98463 20.5978C5.61918 20.4464 5.30682 20.19 5.08706 19.8611C4.8673 19.5322 4.75 19.1456 4.75 18.75C4.75 18.2196 4.96071 17.7109 5.33579 17.3358C5.71086 16.9607 6.21957 16.75 6.75 16.75V16.75Z" stroke="white" stroke-width="1.5" stroke-miterlimit="10" stroke-linecap="round" stroke-linejoin="round"/>
<path d="M18.083 16.75C18.4786 16.75 18.8652 16.8673 19.1941 17.0871C19.523 17.3068 19.7794 17.6192 19.9308 17.9846C20.0821 18.3501 20.1217 18.7522 20.0446 19.1402C19.9674 19.5281 19.7769 19.8845 19.4972 20.1642C19.2175 20.4439 18.8612 20.6344 18.4732 20.7116C18.0852 20.7887 17.6831 20.7491 17.3176 20.5978C16.9522 20.4464 16.6398 20.19 16.4201 19.8611C16.2003 19.5322 16.083 19.1456 16.083 18.75C16.083 18.2196 16.2937 17.7109 16.6688 17.3358C17.0439 16.9607 17.5526 16.75 18.083 16.75V16.75Z" stroke="white" stroke-width="1.5" stroke-miterlimit="10" stroke-linecap="round" stroke-linejoin="round"/>
<path d="M17.083 4.083H20.083L18.75 14.083H5.417L3.417 0.75H0.75" stroke="white" stroke-width="1.5" stroke-miterlimit="10" stroke-linecap="round" stroke-linejoin="round"/>
</g>
<defs>
<clipPath id="clip0">
<rect width="20.833" height="21.5" fill="white"/>
</clipPath>
</defs>
</svg>
