<svg width="23" height="21" viewBox="0 0 23 21" fill="none" xmlns="http://www.w3.org/2000/svg">
<g clip-path="url(#clip0)">
<path d="M15.1982 15.3861L16.3892 16.5771L19.3682 13.5991" stroke="white" stroke-width="1.5" stroke-miterlimit="10" stroke-linecap="round" stroke-linejoin="round"/>
<path d="M9.95105 18.4451H4.28905C3.9135 18.4451 3.55334 18.2959 3.28778 18.0303C3.02223 17.7648 2.87305 17.4046 2.87305 17.0291V4.99707" stroke="white" stroke-width="1.5" stroke-miterlimit="10" stroke-linecap="round" stroke-linejoin="round"/>
<path d="M0.75 4.997H21.984V0.75H0.75V4.997Z" stroke="white" stroke-width="1.5" stroke-miterlimit="10" stroke-linecap="round" stroke-linejoin="round"/>
<path d="M19.8599 4.99707V8.53607" stroke="white" stroke-width="1.5" stroke-miterlimit="10" stroke-linecap="round" stroke-linejoin="round"/>
<path d="M17.2059 20C19.9188 20 22.1179 17.8008 22.1179 15.088C22.1179 12.3752 19.9188 10.176 17.2059 10.176C14.4931 10.176 12.2939 12.3752 12.2939 15.088C12.2939 17.8008 14.4931 20 17.2059 20Z" stroke="white" stroke-width="1.5"/>
</g>
<defs>
<clipPath id="clip0">
<rect width="22.869" height="20.75" fill="white"/>
</clipPath>
</defs>
</svg>
